<svg id="DNA" xmlns="http://www.w3.org/2000/svg" width="87" height="42" viewBox="0 0 87 42">
    <defs>
        <style>
            .darkRed {
                fill: #b00c0c;
                stroke: #b00c0c;
            }
            .darkBlue {
                fill: #005485;
                stroke: #005485;
            }
            .blue {
                fill: #1089af;
                stroke: #1089af;
            }
            .red {
                fill: #d65656;
                stroke: #d65656;
            }
            .strand {
                stroke-width: 0.2px;
            }
        </style>
    </defs>
    <title>DNA</title>
    <g id="DNA">
        <path class="strand blue" d="M3.84,35.91a20.1,20.1,0,0,0,3,.28V24.84h-3Z"/>
        <path class="strand blue" d="M14.86,34a16.88,16.88,0,0,0,3-2.51v-.13h-3Z"/>
        <path class="strand blue" d="M25.49,30.34h3V25c-.95,1.63-1.93,3.26-3,4.84Z"/>
        <path class="strand blue" d="M80.15,17.72v11.1a24.55,24.55,0,0,0,3,3.24V17.72Z"/>
        <path class="strand blue" d="M69.11,11.67v.07c1.08,1.39,2.06,2.86,3,4.34V11.21h-3Z"/>
        <path class="strand blue" d="M58.49,11.69v.52h3V10.79a19.14,19.14,0,0,0-3-2.14Z"/>
        <path class="strand blue" d="M47.46,6.49V19.68h3V6.41c-.37,0-.73,0-1.11,0A14.23,14.23,0,0,0,47.46,6.49Z"/>
        <path class="strand blue" d="M36.51,12.42V22.87h3V9.58A19.48,19.48,0,0,0,36.51,12.42Z"/>
        <path class="strand red" d="M80.14,6.36V17.72h3V6.64A21.53,21.53,0,0,0,80.14,6.36Z"/>
        <path class="strand red" d="M69.11,11.21h3V8.58a17.56,17.56,0,0,0-3,2.5Z"/>
        <path class="strand red" d="M58.49,17.55c.94-1.63,1.93-3.27,3-4.84v-.5h-3Z"/>
        <path class="strand red" d="M47.47,33a19.94,19.94,0,0,0,3-2.84V19.68h-3Z"/>
        <path class="strand red" d="M3.82,10.49V24.84h3V13.73A24.44,24.44,0,0,0,3.82,10.49Z"/>
        <path class="strand red" d="M14.86,30.89v.45h3v-.52c-1.07-1.4-2.06-2.86-3-4.34Z"/>
        <path class="strand red" d="M28.48,30.86v-.52h-3v1.42a18.51,18.51,0,0,0,3,2.14Z"/>
        <path class="strand red" d="M36.51,23.39V36.14c.37,0,.73,0,1.11,0a14.23,14.23,0,0,0,1.88-.13V22.87h-3Z"/>
        <path class="darkRed"
              d="M16.58,19.63C12.57,12.81,8.12,5.27-.16,2.55V7.86a16.22,16.22,0,0,1,4,2.63h0a24.44,24.44,0,0,1,3,3.24,78.26,78.26,0,0,1,5.4,8.35l.52.88,4-3.09C16.68,19.79,16.63,19.71,16.58,19.63Z"/>
        <path class="darkRed"
              d="M62.3,11.53c-.28.39-.55.78-.82,1.18-1.06,1.57-2,3.21-3,4.84-.45.77-.89,1.55-1.32,2.32a63,63,0,0,1-6.71,10.26,19.94,19.94,0,0,1-3,2.84,13.49,13.49,0,0,1-4,2.12h0a12.91,12.91,0,0,1-4,1,14.23,14.23,0,0,1-1.88.13c-.38,0-.74,0-1.11,0a18,18,0,0,1-6.09-1.3l-3.17,4a23.42,23.42,0,0,0,10.37,2.23,19,19,0,0,0,5.86-.89h0c9.06-2.08,13.83-10.47,18.09-18,1.34-2.37,2.66-4.68,4.08-6.8A30.5,30.5,0,0,0,62.3,11.53Z"/>
        <path class="darkRed"
              d="M79.62,1.42A18.91,18.91,0,0,0,65.48,7.68a33.49,33.49,0,0,1,3.35,3.69l.28-.29h0a17.56,17.56,0,0,1,3-2.5,13.33,13.33,0,0,1,7.53-2.24l.51,0h0a21.53,21.53,0,0,1,3,.28,16.83,16.83,0,0,1,4,1.17V2.51A24.89,24.89,0,0,0,79.62,1.42Z"/>
        <path class="darkBlue"
              d="M17.85,31.47h0a17.31,17.31,0,0,1-3,2.51,13.35,13.35,0,0,1-7.52,2.23l-.51,0a20.1,20.1,0,0,1-3-.28,17.39,17.39,0,0,1-4-1.16V40a24.56,24.56,0,0,0,7.47,1.09,18.91,18.91,0,0,0,14.15-6.25,31.7,31.7,0,0,1-3.35-3.7Z"/>
        <path class="darkBlue"
              d="M87.12,34.69a15.75,15.75,0,0,1-4-2.63h0a24.55,24.55,0,0,1-3-3.24h0a76.71,76.71,0,0,1-5.39-8.35C73.9,19,73,17.54,72.11,16.08h0c-.94-1.48-1.92-2.95-3-4.34-.09-.13-.18-.25-.28-.37h0a33.49,33.49,0,0,0-3.35-3.69A22.52,22.52,0,0,0,49.34,1.44a19.26,19.26,0,0,0-5.86.89h0c-9.07,2.08-13.83,10.47-18.09,18-1.34,2.36-2.67,4.68-4.08,6.79A29.73,29.73,0,0,0,24.67,31c.28-.39.55-.78.82-1.18,1.06-1.57,2-3.2,3-4.83.45-.78.89-1.56,1.32-2.33a63,63,0,0,1,6.71-10.26,19.48,19.48,0,0,1,3-2.84,13.84,13.84,0,0,1,4-2.12,16.76,16.76,0,0,1,4-1,14.23,14.23,0,0,1,1.88-.13c.38,0,.74,0,1.11,0a17.58,17.58,0,0,1,8,2.24,19.14,19.14,0,0,1,3,2.14c.28.24.55.48.82.74a30.5,30.5,0,0,1,3.36,3.92c1.68,2.3,3.19,4.86,4.72,7.47,4,6.82,8.47,14.36,16.74,17.09Z"/>
        <path class="darkRed"
              d="M28.48,33.9a18.51,18.51,0,0,1-3-2.14c-.28-.24-.56-.48-.82-.74a29.73,29.73,0,0,1-3.36-3.92h0c-1.63-2.23-3.1-4.71-4.59-7.23l-4,3.09c.69,1.17,1.39,2.34,2.13,3.52h0c.93,1.48,1.92,2.94,3,4.34h0l.29.36h0a31.7,31.7,0,0,0,3.35,3.7,23.12,23.12,0,0,0,5.77,4l3.17-4A14.6,14.6,0,0,1,28.48,33.9Z"/>
    </g>
</svg>
